<svg 
          width="34.78981399536133" 
          height="34.790550231933594" fill="none" 
          xmlns="http://www.w3.org/2000/svg">
          <path d="M 1.3671875562169573 10.644667440380411 C 5.093750269052968 1.7931044593238692 15.296873483220143 -2.3631458632230142 24.148436585603374 1.371229179538574 C 32.9999996879866 5.105604222300162 37.14843813342533 15.300916852761215 33.421875420589316 24.152479833817758 C 29.695312707753306 33.004042814874296 19.49218830149319 37.1524806074047 10.640625199109959 33.41810556464311 C 4.19531243408716 30.707167930726577 0 24.386854840242417 0 17.394667148573422 C 0 15.074354525364651 0.460937489150822 12.777479939240163 1.3671875562169573 10.644667440380411 Z M 17.343750713152257 32.3946675597516 C 25.6250010536664 32.3946675597516 32.34375132993259 25.67591737557804 32.34375132993259 17.394667148573422 C 32.34375132993259 9.113416921568803 25.6250010536664 2.394666588383626 17.343750713152257 2.394666588383626 C 9.062500372638116 2.394666588383626 2.343750096371927 9.113416921568803 2.343750096371927 17.394667148573422 C 2.343750096371927 25.67591737557804 9.062500372638116 32.3946675597516 17.343750713152257 32.3946675597516 Z M 15.156250623205127 8.386854163233773 L 6.148437514397099 17.394667148573422 L 15.156250623205127 26.402478941820142 L 16.812500452889367 24.746230326930732 L 10.625000436886067 18.566542180696718 L 26.890624675195706 18.566542180696718 L 26.890624675195706 16.222792116450126 L 10.625000436886067 16.222792116450126 L 16.804688667823893 10.04310397021611 L 15.156250623205127 8.386854163233773 Z" fill="rgb(255,255,255)"/>
        </svg>